<?xml version="1.0" encoding="UTF-8" standalone="no"?>
<!-- Created with Inkscape (http://www.inkscape.org/) -->

<svg
   width="800.00006"
   height="800"
   viewBox="0 0 800.00006 800"
   version="1.1"
   id="svg1"
   inkscape:version="1.3.2 (091e20e, 2023-11-25, custom)"
   sodipodi:docname="Amandas_Secret.svg"
   inkscape:export-filename="line7.png"
   inkscape:export-xdpi="96"
   inkscape:export-ydpi="96"
   xmlns:inkscape="http://www.inkscape.org/namespaces/inkscape"
   xmlns:sodipodi="http://sodipodi.sourceforge.net/DTD/sodipodi-0.dtd"
   xmlns="http://www.w3.org/2000/svg"
   xmlns:svg="http://www.w3.org/2000/svg">
  <path
     id="rect2"
     style="display:inline;opacity:1;fill:#000000;stroke-width:7.00001"
     inkscape:label="BORDER"
     d="m 0.14081082,9.7962156e-5 c 0,266.619462037844 0,533.238902037844 0,799.858382037844 266.57256918,0 533.14512918,0 799.71770918,0 0,-266.61948 0,-533.23892 0,-799.858382037844 -266.57258,0 -533.14514,0 -799.71770918,0 z M 28.13093,27.995141 c 247.91249,0 495.82498,0 743.73748,0 0,247.956099 0,495.912199 0,743.868299 -247.9125,0 -495.82499,0 -743.73748,0 0,-247.9561 0,-495.9122 0,-743.868299 z" />
  <sodipodi:namedview
     id="namedview1"
     pagecolor="#505050"
     bordercolor="#eeeeee"
     borderopacity="1"
     inkscape:showpageshadow="0"
     inkscape:pageopacity="0"
     inkscape:pagecheckerboard="0"
     inkscape:deskcolor="#505050"
     inkscape:document-units="px"
     inkscape:zoom="0.70710678"
     inkscape:cx="231.22392"
     inkscape:cy="361.33157"
     inkscape:window-width="1920"
     inkscape:window-height="1027"
     inkscape:window-x="-8"
     inkscape:window-y="1072"
     inkscape:window-maximized="1"
     inkscape:current-layer="layer3" />
  <defs
     id="defs1" />
  <ellipse
     style="display:none;opacity:1;fill:#000000;fill-opacity:1;stroke:none;stroke-width:7.00001;stroke-dasharray:none;stroke-opacity:1"
     id="circle3"
     cx="709.89026"
     cy="709.87439"
     inkscape:label="dot8"
     rx="89.968239"
     ry="89.98407" />
  <ellipse
     style="display:none;opacity:1;fill:#000000;fill-opacity:1;stroke:none;stroke-width:7.00001;stroke-dasharray:none;stroke-opacity:1"
     id="circle6"
     cx="399.99966"
     cy="709.87439"
     inkscape:label="dot7"
     rx="89.968239"
     ry="89.98407" />
  <ellipse
     style="display:none;opacity:1;fill:#000000;fill-opacity:1;stroke:none;stroke-width:7.00001;stroke-dasharray:none;stroke-opacity:1"
     id="circle2"
     cx="90.109055"
     cy="709.87439"
     inkscape:label="dot6"
     rx="89.968239"
     ry="89.98407" />
  <ellipse
     style="display:none;opacity:1;fill:#000000;fill-opacity:1;stroke:none;stroke-width:7.00001;stroke-dasharray:none;stroke-opacity:1"
     id="circle8"
     cx="709.89026"
     cy="399.92929"
     inkscape:label="dot5"
     rx="89.968239"
     ry="89.98407" />
  <ellipse
     style="display:none;opacity:1;fill:#000000;fill-opacity:1;stroke:none;stroke-width:7.00001;stroke-dasharray:none;stroke-opacity:1"
     id="path1"
     cx="399.99966"
     cy="399.92929"
     inkscape:label="dot4"
     rx="89.968239"
     ry="89.98407" />
  <ellipse
     style="display:none;opacity:1;fill:#000000;fill-opacity:1;stroke:none;stroke-width:7.00001;stroke-dasharray:none;stroke-opacity:1"
     id="circle7"
     cx="90.109055"
     cy="399.92929"
     inkscape:label="dot3"
     rx="89.968239"
     ry="89.98407" />
  <ellipse
     style="display:none;opacity:1;fill:#000000;fill-opacity:1;stroke:none;stroke-width:7.00001;stroke-dasharray:none;stroke-opacity:1"
     id="circle4"
     cx="709.89026"
     cy="89.984169"
     inkscape:label="dot2"
     rx="89.968239"
     ry="89.98407" />
  <ellipse
     style="display:none;opacity:1;fill:#000000;fill-opacity:1;stroke:none;stroke-width:7.00001;stroke-dasharray:none;stroke-opacity:1"
     id="circle5"
     cx="399.99966"
     cy="89.984169"
     inkscape:label="dot1"
     rx="89.968239"
     ry="89.98407" />
  <ellipse
     style="display:none;opacity:1;fill:#000000;fill-opacity:1;stroke:none;stroke-width:7.00001;stroke-dasharray:none;stroke-opacity:1"
     id="circle1"
     cx="90.109055"
     cy="89.984169"
     inkscape:label="dot0"
     rx="89.968239"
     ry="89.98407" />
  <path
     id="path23"
     style="display:none;fill:#000000;stroke-width:7.00001"
     inkscape:label="line_combo7"
     inkscape:transform-center-x="-282.72359"
     inkscape:transform-center-y="282.8137"
     d="m 399.99966,375.93354 a 23.991531,23.995752 0 0 0 -23.99152,23.99575 23.991531,23.995752 0 0 0 7.06001,16.91888 c -0.0248,0.024 -0.0534,0.0456 -0.0781,0.0704 127.62148,127.64644 255.24339,255.29336 382.86483,382.93992 h 34.00363 c -0.56416,-11.44901 1.12132,-23.83282 -0.83562,-34.70477 C 672.00726,638.11835 544.99329,511.08461 417.97768,384.04929 a 23.991531,23.995752 0 0 0 -17.97802,-8.11575 z" />
  <path
     id="path24"
     style="display:none;fill:#000000;stroke-width:7.00001"
     inkscape:label="line_combo6"
     inkscape:transform-center-x="0.02854692"
     inkscape:transform-center-y="399.93046"
     d="m 399.99966,375.93354 a 23.991531,23.995752 0 0 0 -23.99152,23.99575 h -0.0547 V 799.85848 H 423.9365 V 400.70259 a 23.991531,23.995752 0 0 0 0.0547,-0.7733 23.991531,23.995752 0 0 0 -23.99154,-23.99575 z" />
  <path
     id="path25"
     style="display:none;fill:#000000;stroke-width:7.00001"
     inkscape:label="line_combo5"
     inkscape:transform-center-x="282.76399"
     inkscape:transform-center-y="282.77336"
     d="m 399.99966,375.93354 a 23.991531,23.995752 0 0 0 -16.93932,7.08468 l -0.0781,-0.0781 C 255.36819,510.5785 127.75487,638.21834 0.14081082,765.8567 v 34.00178 C 11.587815,799.2943 23.969347,800.97976 34.8395,799.02272 162.19875,671.64106 289.55634,544.26109 416.91557,416.87941 l -0.008,-0.008 a 23.991531,23.995752 0 0 0 7.08362,-16.94212 23.991531,23.995752 0 0 0 -23.99154,-23.99575 z" />
  <path
     id="path26"
     style="display:none;fill:#000000;stroke-width:7.00001"
     inkscape:label="line_combo4"
     inkscape:transform-center-x="-399.8601"
     inkscape:transform-center-y="0.028521648"
     d="m 399.99966,375.93354 a 23.991531,23.995752 0 0 0 -23.99152,23.99575 23.991531,23.995752 0 0 0 23.96029,23.99575 v 0.032 H 799.85852 V 375.96478 H 401.17893 a 23.991531,23.995752 0 0 0 -1.17927,-0.0313 z" />
  <path
     id="path27"
     style="display:none;fill:#000000;stroke-width:7.00001"
     inkscape:label="line_combo3"
     inkscape:transform-center-x="399.8601"
     inkscape:transform-center-y="-0.028602067"
     d="m 0.14081082,375.91011 v 47.9915 H 399.67166 a 23.991531,23.995752 0 0 0 0.328,0.0234 23.991531,23.995752 0 0 0 23.99154,-23.99575 23.991531,23.995752 0 0 0 -23.99154,-23.99575 23.991531,23.995752 0 0 0 -0.0312,0 v -0.0236 z" />
  <path
     id="path28"
     style="display:none;fill:#000000;stroke-width:7.00001"
     inkscape:label="line_combo2"
     inkscape:transform-center-x="-282.76401"
     inkscape:transform-center-y="-282.77335"
     d="M 765.94862,9.7962156e-5 C 638.30927,127.66002 510.66845,255.31923 383.02909,382.97916 c 0.0116,0.0116 0.0196,0.0272 0.0312,0.0392 a 23.991531,23.995752 0 0 0 -7.05215,16.91093 23.991531,23.995752 0 0 0 23.99152,23.99575 23.991531,23.995752 0 0 0 16.90812,-7.05344 l 0.0468,0.0468 C 544.58915,289.26149 672.22402,161.60417 799.85852,33.947212 V 9.7962156e-5 c -11.30365,-3.39350856e-4 -22.60622,3.39350844e-4 -33.9099,0 z" />
  <path
     id="path29"
     style="display:none;fill:#000000;stroke-width:7.00001"
     inkscape:label="line_combo1"
     inkscape:transform-center-x="-0.028581474"
     inkscape:transform-center-y="-399.93049"
     d="M 376.00814,9.7962156e-5 V 399.92929 a 23.991531,23.995752 0 0 0 23.99152,23.99575 23.991531,23.995752 0 0 0 23.99154,-23.99575 V 9.7962156e-5 Z" />
  <path
     id="path30"
     style="display:none;fill:#000000;stroke-width:7.00001"
     inkscape:label="line_combo0"
     inkscape:transform-center-x="282.72358"
     inkscape:transform-center-y="-282.81375"
     d="M 0.14081082,9.7962156e-5 C 0.70277421,11.468207 -0.97737057,23.868088 0.97645336,34.759568 L 383.02909,416.87941 c 0.0116,-0.012 0.0196,-0.028 0.0312,-0.04 a 23.991531,23.995752 0 0 0 16.93937,7.08563 23.991531,23.995752 0 0 0 23.99154,-23.99575 23.991531,23.995752 0 0 0 -7.04439,-16.98137 l 0.008,-0.008 C 289.33018,255.2932 161.70641,127.64699 34.081954,9.7962156e-5 Z" />
  <g
     inkscape:groupmode="layer"
     id="layer3"
     inkscape:label="Cynic_Invented"
     inkscape:highlight-color="#2fd988">
    <path
       id="path162"
       style="display:none;opacity:1;fill:#000000;stroke-width:7.00001"
       inkscape:label="Tilde"
       d="M 0.140625,0 V 799.85938 H 799.85938 V 423.95703 375.96484 0 Z M 28.130859,27.996094 H 771.86914 V 334.74023 a 89.968239,89.98407 0 0 0 -61.97852,-24.79492 89.968239,89.98407 0 0 0 -86.625,66.01953 H 486.69141 A 89.968239,89.98407 0 0 0 400,309.94531 89.968239,89.98407 0 0 0 310.03125,399.92969 89.968239,89.98407 0 0 0 400,489.91406 89.968239,89.98407 0 0 0 486.61133,423.95703 H 623.2793 a 89.968239,89.98407 0 0 0 86.61132,65.95703 89.968239,89.98407 0 0 0 61.97852,-25.04297 V 771.86328 H 28.130859 Z" />
    <path
       id="path160"
       style="display:none;opacity:1;fill:#000000;stroke-width:7.00001"
       inkscape:label="Pipe"
       d="M 0.140625,0 V 799.85938 H 375.95312 423.93555 799.85938 V 0 H 423.99023 376.00781 Z M 28.130859,27.996094 H 376.00781 V 313.29492 a 89.968239,89.98407 0 0 0 -65.97656,86.63477 89.968239,89.98407 0 0 0 65.92187,86.62109 v 285.3125 H 28.130859 Z m 395.859371,0 H 771.86914 V 771.86328 H 423.93555 V 486.57422 a 89.968239,89.98407 0 0 0 66.0332,-86.64453 89.968239,89.98407 0 0 0 -65.97852,-86.69727 z" />
    <path
       id="path157"
       style="display:none;opacity:1;fill:#000000;stroke-width:7.00001"
       inkscape:label="Underscore"
       d="m 0.140625,0 v 709.875 89.98438 H 90.109375 400 709.89062 799.85938 V 709.875 0 Z M 28.130859,27.996094 H 771.86914 V 644.68555 a 89.968239,89.98407 0 0 0 -61.97852,-24.79493 89.968239,89.98407 0 0 0 -89.96874,89.98438 89.968239,89.98407 0 0 0 25.0371,61.98828 H 464.92969 A 89.968239,89.98407 0 0 0 489.96875,709.875 89.968239,89.98407 0 0 0 400,619.89062 89.968239,89.98407 0 0 0 310.03125,709.875 89.968239,89.98407 0 0 0 335.06836,771.86328 H 155.03906 A 89.968239,89.98407 0 0 0 180.07812,709.875 89.968239,89.98407 0 0 0 90.109375,619.89062 89.968239,89.98407 0 0 0 28.130859,644.93164 Z" />
    <path
       id="path155"
       style="display:none;opacity:1;fill:#000000;stroke-width:7.00001"
       inkscape:label="Carrot_Hat_Exponent"
       d="m 0.140625,0 v 765.85742 34.00196 h 12.925781 c 4.699103,0.11694 9.396113,0.23056 13.951172,0 h 738.837892 34.00391 v -12.92774 c 0.11696,-4.70025 0.23055,-9.39893 0,-13.95508 V 0 Z M 28.130859,27.996094 H 771.86914 V 737.99609 C 653.90524,620.01386 535.9426,502.03122 417.97852,384.04883 a 23.991531,23.995752 0 0 0 -0.56641,-0.41797 23.991531,23.995752 0 0 0 -5.32227,-3.92774 23.991531,23.995752 0 0 0 -2.57226,-1.71874 23.991531,23.995752 0 0 0 -9.51758,-2.05079 23.991531,23.995752 0 0 0 -16.97656,7.04688 l -0.041,-0.041 C 264.69863,501.2458 146.41457,619.55481 28.130859,737.86133 Z M 399.93359,433.86523 C 512.57702,546.5307 625.22182,659.19771 737.86523,771.86328 H 61.996094 C 174.6421,659.19746 287.28753,546.53114 399.93359,433.86523 Z" />
    <path
       id="path149"
       style="display:none;opacity:1;fill:#000000;stroke-width:7.00001"
       inkscape:label="AtSign_Arroba"
       d="m 0.140625,0 v 12.947266 c -0.11629373,4.699401 -0.22896292,9.396882 0,13.953125 V 799.85938 H 799.85938 V 33.947266 0 H 765.94922 34.082031 Z M 62.072266,27.996094 H 737.95703 C 640.08376,125.88491 542.20937,223.77336 444.33594,321.66211 A 89.968239,89.98407 0 0 0 400,309.94531 89.968239,89.98407 0 0 0 355.82031,321.79492 C 257.90439,223.86197 159.98817,125.92921 62.072266,27.996094 Z M 28.130859,61.917969 321.88672,355.72656 A 89.968239,89.98407 0 0 0 310.03125,399.92969 89.968239,89.98407 0 0 0 400,489.91406 89.968239,89.98407 0 0 0 489.96875,399.92969 89.968239,89.98407 0 0 0 478.26172,355.59961 C 576.13065,257.71352 674.00029,159.82748 771.86914,61.941406 V 771.86328 H 28.130859 Z" />
    <path
       id="path171"
       style="display:none;opacity:1;fill:#000000;stroke-width:7.00001"
       inkscape:label="Question_Inverted"
       d="m 0.140625,0 v 799.85938 h 765.714845 34.00391 v -12.92774 c 0.11696,-4.70025 0.23055,-9.39893 0,-13.95508 V 0 H 423.99023 376.00781 Z M 28.130859,27.996094 H 335.06641 a 89.968239,89.98407 0 0 0 -25.03516,61.988281 89.968239,89.98407 0 0 0 65.97656,86.634765 v 223.31055 a 23.991531,23.995752 0 0 0 1.71289,8.4707 23.991531,23.995752 0 0 0 1.01758,1.99805 23.991531,23.995752 0 0 0 3.64258,5.42578 23.991531,23.995752 0 0 0 0.6875,1.02344 c -0.0248,0.024 -0.0534,0.0455 -0.0781,0.0703 118.29126,118.31439 236.58373,236.63077 354.875,354.94531 H 28.130859 Z m 437.046871,0 H 771.86914 V 737.99609 C 655.909,622.01792 539.95052,506.03882 423.99023,390.06055 V 176.61914 A 89.968239,89.98407 0 0 0 489.96875,89.984375 89.968239,89.98407 0 0 0 465.17773,27.996094 Z" />
    <path
       id="path147"
       style="display:none;opacity:1;fill:#000000;stroke-width:7.00001"
       inkscape:label="QuestionMark"
       d="m 0.140625,0 v 12.947266 c -0.11629373,4.699401 -0.22896292,9.396882 0,13.953125 V 799.85938 H 375.95312 423.93555 799.85938 V 0 H 34.082031 Z M 62.074219,27.996094 H 771.86914 V 771.86328 H 464.92969 A 89.968239,89.98407 0 0 0 489.96875,709.875 89.968239,89.98407 0 0 0 423.93555,623.16211 V 400.70312 a 23.991531,23.995752 0 0 0 0.0547,-0.77343 23.991531,23.995752 0 0 0 -1.66992,-8.39063 23.991531,23.995752 0 0 0 -1.20117,-2.35742 23.991531,23.995752 0 0 0 -3.33398,-4.98242 23.991531,23.995752 0 0 0 -0.83789,-1.25195 l 0.008,-0.008 C 298.66116,264.62506 180.36789,146.31056 62.074219,27.996094 Z M 28.130859,61.917969 375.95312,409.80078 v 213.45117 a 89.968239,89.98407 0 0 0 -65.92187,86.62305 89.968239,89.98407 0 0 0 25.03711,61.98828 H 28.130859 Z" />
    <path
       id="path153"
       style="display:none;opacity:1;fill:#000000;stroke-width:7.00001"
       inkscape:label="Equals"
       d="m 0.140625,0 v 375.91016 47.99218 375.95704 H 799.85938 V 423.95703 375.96484 0 Z M 28.130859,27.996094 H 771.86914 V 375.96484 H 486.69141 A 89.968239,89.98407 0 0 0 400,309.94531 89.968239,89.98407 0 0 0 313.38672,375.91016 H 28.130859 Z m 0,395.906246 H 313.375 A 89.968239,89.98407 0 0 0 400,489.91406 89.968239,89.98407 0 0 0 486.61133,423.95703 H 771.86914 V 771.86328 H 28.130859 Z" />
    <path
       id="path143"
       style="display:none;opacity:1;fill:#000000;stroke-width:7.00001"
       inkscape:label="Equals_OLD"
       d="m 0.140625,0 v 375.91016 47.99218 341.95508 34.00196 h 12.925781 c 4.699103,0.11694 9.396113,0.23056 13.951172,0 h 738.837892 34.00391 v -12.92774 c 0.11696,-4.70025 0.23055,-9.39893 0,-13.95508 V 423.95703 375.96484 0 Z M 28.130859,27.996094 H 771.86914 V 375.96484 H 401.17969 A 23.991531,23.995752 0 0 0 400,375.93359 a 23.991531,23.995752 0 0 0 -0.0312,0 v -0.0234 H 28.130859 Z m 0,395.906246 H 342.02734 C 237.3953,528.55468 132.76295,633.20907 28.130859,737.86133 Z m 429.750001,0.0547 H 771.86914 V 737.99609 C 667.20598,633.31666 562.54393,528.63636 457.88086,423.95703 Z m -57.94727,9.9082 C 512.57702,546.5307 625.22182,659.19771 737.86523,771.86328 H 61.996094 C 174.6421,659.19746 287.28753,546.53114 399.93359,433.86523 Z" />
    <path
       id="path138"
       style="display:none;opacity:1;fill:#000000;stroke-width:7.00001"
       inkscape:label="SemiColon"
       d="m 0.140625,0 v 765.85742 34.00196 h 12.925781 c 4.699103,0.11694 9.396113,0.23056 13.951172,0 H 799.85938 V 0 H 400 Z M 28.130859,27.996094 H 335.06641 A 89.968239,89.98407 0 0 0 310.03125,89.984375 89.968239,89.98407 0 0 0 400,179.96875 89.968239,89.98407 0 0 0 489.96875,89.984375 89.968239,89.98407 0 0 0 465.17773,27.996094 H 771.86914 V 771.86328 H 61.996094 C 159.92074,673.92141 257.84507,575.97882 355.76953,478.03711 A 89.968239,89.98407 0 0 0 400,489.91406 89.968239,89.98407 0 0 0 489.96875,399.92969 89.968239,89.98407 0 0 0 400,309.94531 a 89.968239,89.98407 0 0 0 -89.96875,89.98438 89.968239,89.98407 0 0 0 11.82617,44.14843 C 223.94903,542.00564 126.03934,639.93398 28.130859,737.86133 Z" />
    <path
       id="path139"
       style="display:none;opacity:1;fill:#000000;stroke-width:7.00001"
       inkscape:label="Colon"
       d="M 0.140625,0 V 799.85938 H 799.85938 V 0 H 400 Z M 28.130859,27.996094 H 335.06641 A 89.968239,89.98407 0 0 0 310.03125,89.984375 89.968239,89.98407 0 0 0 400,179.96875 89.968239,89.98407 0 0 0 489.96875,89.984375 89.968239,89.98407 0 0 0 465.17773,27.996094 H 771.86914 V 771.86328 H 28.130859 Z M 400,309.94531 A 89.968239,89.98407 0 0 0 310.03125,399.92969 89.968239,89.98407 0 0 0 400,489.91406 89.968239,89.98407 0 0 0 489.96875,399.92969 89.968239,89.98407 0 0 0 400,309.94531 Z" />
    <path
       id="path151"
       style="display:none;opacity:1;fill:#000000;stroke-width:7.00001"
       inkscape:label="SlashBack"
       d="m 0.140625,0 v 12.947266 c -0.11629373,4.699401 -0.22896292,9.396882 0,13.953125 V 799.85938 h 765.714845 34.00391 v -12.92774 c 0.11696,-4.70025 0.23055,-9.39893 0,-13.95508 V 0 H 34.082031 Z M 62.074219,27.996094 H 771.86914 V 737.99609 C 673.94309,640.05482 576.01767,542.11295 478.0918,444.17188 A 89.968239,89.98407 0 0 0 489.96875,399.92969 89.968239,89.98407 0 0 0 400,309.94531 89.968239,89.98407 0 0 0 355.82031,321.79297 C 257.90504,223.86067 159.98947,125.92856 62.074219,27.996094 Z M 28.130859,61.917969 321.88672,355.72656 A 89.968239,89.98407 0 0 0 310.03125,399.92969 89.968239,89.98407 0 0 0 400,489.91406 89.968239,89.98407 0 0 0 444.14453,478.08398 c 97.90672,97.92588 195.81406,195.8534 293.7207,293.7793 H 28.130859 Z" />
    <path
       id="path136"
       style="display:none;opacity:1;fill:#000000;stroke-width:7.00001"
       inkscape:label="SlashForward"
       d="m 0.140625,0 v 765.85742 34.00196 h 12.925781 c 4.699103,0.11694 9.396113,0.23056 13.951172,0 H 799.85938 V 33.947266 0 H 765.94922 Z M 28.130859,27.996094 H 737.95703 C 640.08376,125.88491 542.20937,223.77336 444.33594,321.66211 A 89.968239,89.98407 0 0 0 400,309.94531 a 89.968239,89.98407 0 0 0 -89.96875,89.98438 89.968239,89.98407 0 0 0 11.82617,44.14843 C 223.94903,542.00564 126.03934,639.93398 28.130859,737.86133 Z M 771.86914,61.941406 V 771.86328 H 61.996094 C 159.92074,673.92141 257.84507,575.97882 355.76953,478.03711 A 89.968239,89.98407 0 0 0 400,489.91406 89.968239,89.98407 0 0 0 489.96875,399.92969 89.968239,89.98407 0 0 0 478.26172,355.59961 C 576.13065,257.71352 674.00029,159.82748 771.86914,61.941406 Z" />
    <path
       id="path135"
       style="display:none;opacity:1;fill:#000000;stroke-width:7.00001"
       inkscape:label="Period"
       d="M 0.140625,0 V 799.85938 H 400 799.85938 V 0 Z M 28.130859,27.996094 H 771.86914 V 771.86328 H 464.92969 A 89.968239,89.98407 0 0 0 489.96875,709.875 89.968239,89.98407 0 0 0 400,619.89062 89.968239,89.98407 0 0 0 310.03125,709.875 89.968239,89.98407 0 0 0 335.06836,771.86328 H 28.130859 Z" />
    <path
       id="path134"
       style="display:none;opacity:1;fill:#000000;stroke-width:7.00001"
       inkscape:label="Comma"
       d="m 0.140625,0 v 765.85742 34.00196 h 12.925781 c 4.699103,0.11694 9.396113,0.23056 13.951172,0 H 799.85938 V 0 Z M 28.130859,27.996094 H 771.86914 V 771.86328 H 61.996094 C 159.92074,673.92141 257.84507,575.97882 355.76953,478.03711 A 89.968239,89.98407 0 0 0 400,489.91406 89.968239,89.98407 0 0 0 489.96875,399.92969 89.968239,89.98407 0 0 0 400,309.94531 a 89.968239,89.98407 0 0 0 -89.96875,89.98438 89.968239,89.98407 0 0 0 11.82617,44.14843 C 223.94903,542.00564 126.03934,639.93398 28.130859,737.86133 Z" />
    <path
       id="path133"
       style="display:none;opacity:1;fill:#000000;stroke-width:7.00001"
       inkscape:label="MinusHyphen"
       d="M 0.140625,0 V 799.85938 H 799.85938 V 423.95703 375.96484 0 Z M 28.130859,27.996094 H 771.86914 V 375.96484 H 401.17969 A 23.991531,23.995752 0 0 0 400,375.93359 a 23.991531,23.995752 0 0 0 -23.99219,23.9961 23.991531,23.995752 0 0 0 23.96094,23.99609 v 0.0312 h 371.90039 v 347.9063 H 28.130859 Z" />
    <path
       id="path130"
       style="display:none;opacity:1;fill:#000000;stroke-width:7.00001"
       inkscape:label="Plus"
       d="m 0.140625,0 v 375.91016 47.99218 375.95704 H 375.95312 423.93555 799.85938 V 423.95703 375.96484 0 Z M 28.130859,27.996094 H 771.86914 V 375.96484 H 401.17969 A 23.991531,23.995752 0 0 0 400,375.93359 a 23.991531,23.995752 0 0 0 -0.0312,0 v -0.0234 H 28.130859 Z m 0,395.906246 H 375.95312 V 771.86328 H 28.130859 Z m 395.804691,0.0547 H 771.86914 V 771.86328 H 423.93555 Z" />
    <path
       id="path122"
       style="display:none;opacity:1;fill:#000000;stroke-width:7.00001"
       inkscape:label="AsteriskTimes"
       d="m 0.140625,0 v 12.947266 c -0.11629373,4.699401 -0.22896292,9.396882 0,13.953125 v 349.009769 47.99218 341.95508 34.00196 h 12.925781 c 4.699103,0.11694 9.396113,0.23056 13.951172,0 h 348.935542 47.98243 341.91992 34.00391 v -12.92774 c 0.11696,-4.70025 0.23055,-9.39893 0,-13.95508 V 423.95703 375.96484 33.947266 0 H 765.94922 423.99023 376.00781 34.082031 Z M 62.074219,27.996094 H 376.00781 V 341.98438 C 271.36325,237.32164 166.7187,132.65897 62.074219,27.996094 Z m 361.916011,0 h 313.9668 C 633.30175,132.668 528.64558,237.33984 423.99023,342.01172 Z M 28.130859,61.917969 342.06836,375.91016 H 28.130859 Z m 743.738281,0.02344 V 375.96484 H 457.90039 C 562.55646,271.29044 667.21313,166.61583 771.86914,61.941406 Z M 28.130859,423.90234 H 342.02734 C 237.3953,528.55468 132.76295,633.20907 28.130859,737.86133 Z m 429.750001,0.0547 H 771.86914 V 737.99609 C 667.20598,633.31666 562.54393,528.63636 457.88086,423.95703 Z m -81.92774,33.89258 V 771.86328 H 61.996094 C 166.64866,667.1923 271.30065,562.52052 375.95312,457.84961 Z m 47.98243,0.0215 C 528.57853,562.53455 633.2223,667.19976 737.86523,771.86328 H 423.93555 Z" />
    <path
       id="path169"
       style="display:none;opacity:1;fill:#000000;stroke-width:7.00001"
       inkscape:label="Division"
       d="m 0.140625,0 v 375.91016 47.99218 375.95704 H 400 799.85938 V 423.95703 375.96484 0 H 400 Z M 28.130859,27.996094 H 335.06641 A 89.968239,89.98407 0 0 0 310.03125,89.984375 89.968239,89.98407 0 0 0 400,179.96875 89.968239,89.98407 0 0 0 489.96875,89.984375 89.968239,89.98407 0 0 0 465.17773,27.996094 H 771.86914 V 375.96484 H 401.17969 A 23.991531,23.995752 0 0 0 400,375.93359 a 23.991531,23.995752 0 0 0 -0.0312,0 v -0.0234 H 28.130859 Z m 0,395.906246 H 399.67188 a 23.991531,23.995752 0 0 0 0.27148,0.0195 23.991531,23.995752 0 0 0 0.0254,0.004 v 0.0312 H 771.86914 V 771.86328 H 464.92969 A 89.968239,89.98407 0 0 0 489.96875,709.875 89.968239,89.98407 0 0 0 400,619.89062 89.968239,89.98407 0 0 0 310.03125,709.875 89.968239,89.98407 0 0 0 335.06836,771.86328 H 28.130859 Z" />
    <path
       id="path120"
       style="display:none;opacity:1;fill:#000000;stroke-width:7.00001"
       inkscape:label="CloseCurlyBrace"
       d="m 0.140625,0 v 12.947266 c -0.11629373,4.699401 -0.22896292,9.396882 0,13.953125 v 738.957029 34.00196 h 12.925781 c 4.699103,0.11694 9.396113,0.23056 13.951172,0 H 799.85938 V 399.92969 0 H 34.082031 Z M 62.074219,27.996094 H 771.86914 V 334.74023 a 89.968239,89.98407 0 0 0 -61.97852,-24.79492 89.968239,89.98407 0 0 0 -89.96874,89.98438 89.968239,89.98407 0 0 0 89.96874,89.98437 89.968239,89.98407 0 0 0 61.97852,-25.04297 V 771.86328 H 61.996094 C 180.25293,653.58564 298.5086,535.30717 416.76562,417.0293 a 23.991531,23.995752 0 0 0 7.22461,-17.09961 23.991531,23.995752 0 0 0 -1.82812,-9.1875 23.991531,23.995752 0 0 0 -1.23438,-1.84766 23.991531,23.995752 0 0 0 -3.97851,-5.94336 23.991531,23.995752 0 0 0 -0.002,-0.004 l 0.008,-0.008 C 298.66116,264.62506 180.36789,146.31056 62.074219,27.996094 Z M 28.130859,61.917969 366.03906,399.88672 C 253.4032,512.54422 140.7667,625.20377 28.130859,737.86133 Z" />
    <path
       id="path118"
       style="display:none;opacity:1;fill:#000000;stroke-width:7.00001"
       inkscape:label="CloseSquareBracket"
       d="m 0.140625,0 v 12.947266 c -0.11629373,4.699401 -0.22896292,9.396882 0,13.953125 v 373.029299 365.92773 34.00196 h 12.925781 c 4.699103,0.11694 9.396113,0.23056 13.951172,0 H 799.85938 V 0 H 34.082031 Z M 62.074219,27.996094 H 771.86914 V 771.86328 H 61.996094 C 180.25293,653.58564 298.5086,535.30717 416.76562,417.0293 a 23.991531,23.995752 0 0 0 7.22461,-17.09961 23.991531,23.995752 0 0 0 -1.82812,-9.1875 23.991531,23.995752 0 0 0 -1.23438,-1.84766 23.991531,23.995752 0 0 0 -3.97851,-5.94336 23.991531,23.995752 0 0 0 -0.002,-0.004 l 0.008,-0.008 C 298.66116,264.62506 180.36789,146.31056 62.074219,27.996094 Z M 28.130859,61.917969 366.03906,399.88672 C 253.4032,512.54422 140.7667,625.20377 28.130859,737.86133 V 464.87305 a 89.968239,89.98407 0 0 0 61.978516,25.04101 89.968239,89.98407 0 0 0 89.968745,-89.98437 89.968239,89.98407 0 0 0 -89.968745,-89.98438 89.968239,89.98407 0 0 0 -61.978516,25.04102 z" />
    <path
       id="path116"
       style="display:none;opacity:1;fill:#000000;stroke-width:7.00001"
       inkscape:label="CloseChevron"
       d="m 0.140625,0 v 12.947266 c -0.11629373,4.699401 -0.22896292,9.396882 0,13.953125 v 738.957029 34.00196 h 12.925781 c 4.699103,0.11694 9.396113,0.23056 13.951172,0 H 799.85938 V 0 H 34.082031 Z M 62.074219,27.996094 H 771.86914 V 771.86328 H 61.996094 C 159.92074,673.92141 257.84507,575.97882 355.76953,478.03711 A 89.968239,89.98407 0 0 0 400,489.91406 89.968239,89.98407 0 0 0 489.96875,399.92969 89.968239,89.98407 0 0 0 400,309.94531 89.968239,89.98407 0 0 0 355.82031,321.79297 C 257.90504,223.86067 159.98947,125.92856 62.074219,27.996094 Z M 28.130859,61.917969 321.88672,355.72656 a 89.968239,89.98407 0 0 0 -11.85547,44.20313 89.968239,89.98407 0 0 0 11.82617,44.14843 C 223.94903,542.00564 126.03934,639.93398 28.130859,737.86133 Z" />
    <path
       id="path112"
       style="display:none;opacity:1;fill:#000000;stroke-width:7.00001"
       inkscape:label="CloseParenthesis"
       d="m 0.140625,0 v 12.947266 c -0.11629373,4.699401 -0.22896292,9.396882 0,13.953125 v 738.957029 34.00196 h 12.925781 c 4.699103,0.11694 9.396113,0.23056 13.951172,0 H 799.85938 V 0 H 34.082031 Z M 62.074219,27.996094 H 771.86914 V 771.86328 H 61.996094 C 180.25293,653.58564 298.5086,535.30717 416.76562,417.0293 a 23.991531,23.995752 0 0 0 7.22461,-17.09961 23.991531,23.995752 0 0 0 -1.82812,-9.1875 23.991531,23.995752 0 0 0 -1.23438,-1.84766 23.991531,23.995752 0 0 0 -3.97851,-5.94336 23.991531,23.995752 0 0 0 -0.002,-0.004 l 0.008,-0.008 C 298.66116,264.62506 180.36789,146.31056 62.074219,27.996094 Z M 28.130859,61.917969 366.03906,399.88672 C 253.4032,512.54422 140.7667,625.20377 28.130859,737.86133 Z" />
    <path
       id="path114"
       style="display:none;opacity:1;fill:#000000;stroke-width:7.00001"
       inkscape:label="OpenCurlyBrace"
       d="m 0.140625,0 v 399.92969 399.92969 h 765.714845 34.00391 v -12.92774 c 0.11696,-4.70025 0.23055,-9.39893 0,-13.95508 V 33.947266 0 H 765.94922 Z M 28.130859,27.996094 H 737.95703 C 619.66191,146.31001 501.36526,264.62349 383.07031,382.9375 a 23.991531,23.995752 0 0 0 -7.0625,16.99219 23.991531,23.995752 0 0 0 7.01953,16.95508 c -0.0126,0.0109 -0.0254,0.0215 -0.0371,0.0332 118.29126,118.31439 236.58373,236.63077 354.875,354.94531 H 28.130859 V 464.87305 A 89.968239,89.98407 0 0 0 90.109375,489.91406 89.968239,89.98407 0 0 0 180.07812,399.92969 89.968239,89.98407 0 0 0 90.109375,309.94531 89.968239,89.98407 0 0 0 28.130859,334.98633 Z M 771.86914,61.941406 V 737.99609 C 659.2118,625.32124 546.55584,512.64559 433.89844,399.9707 546.55507,287.29434 659.21255,174.61782 771.86914,61.941406 Z" />
    <path
       id="path108"
       style="display:none;opacity:1;fill:#000000;stroke-width:7.00001"
       inkscape:label="OpenSquareBracket"
       d="m 0.140625,0 v 799.85938 h 765.714845 34.00391 v -12.92774 c 0.11696,-4.70025 0.23055,-9.39893 0,-13.95508 V 399.92969 33.947266 0 H 765.94922 Z M 28.130859,27.996094 H 737.95703 C 619.66191,146.31001 501.36526,264.62349 383.07031,382.9375 a 23.991531,23.995752 0 0 0 -7.0625,16.99219 23.991531,23.995752 0 0 0 7.01953,16.95508 c -0.0126,0.0109 -0.0254,0.0215 -0.0371,0.0332 118.29126,118.31439 236.58373,236.63077 354.875,354.94531 H 28.130859 Z M 771.86914,61.941406 V 334.74023 a 89.968239,89.98407 0 0 0 -61.97852,-24.79492 89.968239,89.98407 0 0 0 -89.96874,89.98438 89.968239,89.98407 0 0 0 89.96874,89.98437 89.968239,89.98407 0 0 0 61.97852,-25.04297 v 273.125 C 659.2118,625.32124 546.55584,512.64559 433.89844,399.9707 546.55507,287.29434 659.21255,174.61782 771.86914,61.941406 Z" />
    <path
       id="path110"
       style="display:none;opacity:1;fill:#000000;stroke-width:7.00001"
       inkscape:label="OpenChevron"
       d="m 0.140625,0 v 799.85938 h 765.714845 34.00391 v -12.92774 c 0.11696,-4.70025 0.23055,-9.39893 0,-13.95508 V 33.947266 0 H 765.94922 Z M 28.130859,27.996094 H 737.95703 C 640.08376,125.88491 542.20937,223.77336 444.33594,321.66211 A 89.968239,89.98407 0 0 0 400,309.94531 89.968239,89.98407 0 0 0 310.03125,399.92969 89.968239,89.98407 0 0 0 400,489.91406 89.968239,89.98407 0 0 0 444.14453,478.08398 c 97.90672,97.92588 195.81406,195.8534 293.7207,293.7793 H 28.130859 Z M 771.86914,61.941406 V 737.99609 C 673.94309,640.05482 576.01767,542.11295 478.0918,444.17188 a 89.968239,89.98407 0 0 0 11.87695,-44.24219 89.968239,89.98407 0 0 0 -11.70703,-44.33008 C 576.13065,257.71352 674.00029,159.82748 771.86914,61.941406 Z" />
    <path
       id="path106"
       style="display:none;opacity:1;fill:#000000;stroke-width:7.00001"
       inkscape:label="OpenParenthesis"
       d="m 0.140625,0 v 799.85938 h 765.714845 34.00391 v -12.92774 c 0.11696,-4.70025 0.23055,-9.39893 0,-13.95508 V 33.947266 0 H 765.94922 Z M 28.130859,27.996094 H 737.95703 C 619.66191,146.31001 501.36526,264.62349 383.07031,382.9375 a 23.991531,23.995752 0 0 0 -7.0625,16.99219 23.991531,23.995752 0 0 0 7.01953,16.95508 c -0.0126,0.0109 -0.0254,0.0215 -0.0371,0.0332 118.29126,118.31439 236.58373,236.63077 354.875,354.94531 H 28.130859 Z M 771.86914,61.941406 V 737.99609 C 659.2118,625.32124 546.55584,512.64559 433.89844,399.9707 546.55507,287.29434 659.21255,174.61782 771.86914,61.941406 Z" />
    <path
       id="path100"
       style="display:none;opacity:1;fill:#000000;stroke-width:7.00001"
       inkscape:label="Percent"
       d="m 0.140625,0 v 89.984375 675.873045 34.00196 h 12.925781 c 4.699103,0.11694 9.396113,0.23056 13.951172,0 H 709.89062 799.85938 V 709.875 33.947266 0 H 765.94922 90.109375 Z M 155.28711,27.996094 H 737.95703 C 619.64824,146.32368 501.33792,264.65083 383.0293,382.97852 c 0.0116,0.0116 0.0197,0.0271 0.0312,0.0391 l -0.0781,-0.0781 C 264.69863,501.2458 146.41457,619.55481 28.130859,737.86133 V 154.92773 A 89.968239,89.98407 0 0 0 90.109375,179.96875 89.968239,89.98407 0 0 0 180.07812,89.984375 89.968239,89.98407 0 0 0 155.28711,27.996094 Z M 771.86914,61.941406 V 644.68555 a 89.968239,89.98407 0 0 0 -61.97852,-24.79493 89.968239,89.98407 0 0 0 -89.96874,89.98438 89.968239,89.98407 0 0 0 25.0371,61.98828 H 61.996094 C 180.30306,653.5355 298.60886,535.20691 416.91602,416.87891 l 0.0391,0.0391 C 535.25962,298.59272 653.56461,180.26675 771.86914,61.941406 Z" />
    <path
       id="path167"
       style="display:none;opacity:1;fill:#000000;stroke-width:7.00001"
       inkscape:label="Yen"
       d="m 0.140625,0 v 89.984375 675.873045 34.00196 h 12.925781 c 4.699103,0.11694 9.396113,0.23056 13.951172,0 h 738.837892 34.00391 v -12.92774 c 0.11696,-4.70025 0.23055,-9.39893 0,-13.95508 V 0 H 90.109375 Z M 155.28711,27.996094 H 771.86914 V 737.99609 C 653.90524,620.01386 535.9426,502.03122 417.97852,384.04883 a 23.991531,23.995752 0 0 0 -0.56641,-0.41797 23.991531,23.995752 0 0 0 -5.32227,-3.92774 23.991531,23.995752 0 0 0 -2.57226,-1.71874 23.991531,23.995752 0 0 0 -9.51758,-2.05079 23.991531,23.995752 0 0 0 -16.97656,7.04688 l -0.041,-0.041 C 264.69863,501.2458 146.41457,619.55481 28.130859,737.86133 V 154.92773 A 89.968239,89.98407 0 0 0 90.109375,179.96875 89.968239,89.98407 0 0 0 180.07812,89.984375 89.968239,89.98407 0 0 0 155.28711,27.996094 Z M 399.93359,433.86523 C 512.57702,546.5307 625.22182,659.19771 737.86523,771.86328 H 61.996094 C 174.6421,659.19746 287.28753,546.53114 399.93359,433.86523 Z" />
    <path
       id="path165"
       style="display:none;opacity:1;fill:#000000;stroke-width:7.00001"
       inkscape:label="BritishPound"
       d="m 0.140625,0 v 765.85742 34.00196 h 12.925781 c 4.699103,0.11694 9.396113,0.23056 13.951172,0 h 738.837892 34.00391 v -12.92774 c 0.11696,-4.70025 0.23055,-9.39893 0,-13.95508 V 89.984375 0 H 709.89062 Z M 28.130859,27.996094 H 644.95703 a 89.968239,89.98407 0 0 0 -25.03515,61.988281 89.968239,89.98407 0 0 0 89.96874,89.984375 89.968239,89.98407 0 0 0 61.97852,-25.04102 V 737.99609 C 653.90524,620.01386 535.9426,502.03122 417.97852,384.04883 a 23.991531,23.995752 0 0 0 -0.56641,-0.41797 23.991531,23.995752 0 0 0 -5.32227,-3.92774 23.991531,23.995752 0 0 0 -2.57226,-1.71874 23.991531,23.995752 0 0 0 -9.51758,-2.05079 23.991531,23.995752 0 0 0 -16.97656,7.04688 l -0.041,-0.041 C 264.69863,501.2458 146.41457,619.55481 28.130859,737.86133 Z M 399.93359,433.86523 C 512.57702,546.5307 625.22182,659.19771 737.86523,771.86328 H 61.996094 C 174.6421,659.19746 287.28753,546.53114 399.93359,433.86523 Z" />
    <path
       id="path98"
       style="display:none;opacity:1;fill:#000000;stroke-width:7.00001"
       inkscape:label="DollarSignIlluminati"
       d="m 0.140625,0 v 765.85742 34.00196 h 12.925781 c 4.699103,0.11694 9.396113,0.23056 13.951172,0 h 738.837892 34.00391 v -12.92774 c 0.11696,-4.70025 0.23055,-9.39893 0,-13.95508 V 0 H 400 Z M 28.130859,27.996094 H 335.06641 A 89.968239,89.98407 0 0 0 310.03125,89.984375 89.968239,89.98407 0 0 0 400,179.96875 89.968239,89.98407 0 0 0 489.96875,89.984375 89.968239,89.98407 0 0 0 465.17773,27.996094 H 771.86914 V 737.99609 C 653.90524,620.01386 535.9426,502.03122 417.97852,384.04883 a 23.991531,23.995752 0 0 0 -0.56641,-0.41797 23.991531,23.995752 0 0 0 -5.32227,-3.92774 23.991531,23.995752 0 0 0 -2.57226,-1.71874 23.991531,23.995752 0 0 0 -9.51758,-2.05079 23.991531,23.995752 0 0 0 -16.97656,7.04688 l -0.041,-0.041 C 264.69863,501.2458 146.41457,619.55481 28.130859,737.86133 Z M 399.93359,433.86523 C 512.57702,546.5307 625.22182,659.19771 737.86523,771.86328 H 61.996094 C 174.6421,659.19746 287.28753,546.53114 399.93359,433.86523 Z" />
    <path
       id="path94"
       style="display:none;opacity:1;fill:#000000;stroke-width:7.00001"
       inkscape:label="Hashtag"
       d="m 0.140625,0 v 12.947266 c -0.11629373,4.699401 -0.22896292,9.396882 0,13.953125 v 738.957029 34.00196 h 12.925781 c 4.699103,0.11694 9.396113,0.23056 13.951172,0 h 738.837892 34.00391 v -12.92774 c 0.11696,-4.70025 0.23055,-9.39893 0,-13.95508 V 33.947266 0 H 765.94922 34.082031 Z M 62.072266,27.996094 H 737.95703 C 640.08376,125.88491 542.20937,223.77336 444.33594,321.66211 A 89.968239,89.98407 0 0 0 400,309.94531 89.968239,89.98407 0 0 0 355.82031,321.79492 C 257.90439,223.86197 159.98817,125.92921 62.072266,27.996094 Z M 28.130859,61.917969 321.88672,355.72656 a 89.968239,89.98407 0 0 0 -11.85547,44.20313 89.968239,89.98407 0 0 0 11.82617,44.14843 C 223.94903,542.00564 126.03934,639.93398 28.130859,737.86133 Z m 743.738281,0.02344 V 737.99609 C 673.94309,640.05482 576.01767,542.11295 478.0918,444.17188 a 89.968239,89.98407 0 0 0 11.87695,-44.24219 89.968239,89.98407 0 0 0 -11.70703,-44.33008 C 576.13065,257.71352 674.00029,159.82748 771.86914,61.941406 Z M 355.76953,478.03711 A 89.968239,89.98407 0 0 0 400,489.91406 89.968239,89.98407 0 0 0 444.14453,478.08398 c 97.90672,97.92588 195.81406,195.8534 293.7207,293.7793 H 61.996094 C 159.92074,673.92141 257.84507,575.97882 355.76953,478.03711 Z" />
    <path
       id="path159"
       style="display:none;opacity:1;fill:#000000;stroke-width:7.00001"
       inkscape:label="BackTick"
       d="m 0.140625,0 v 12.947266 c -0.11629373,4.699401 -0.22896292,9.396882 0,13.953125 V 89.984375 799.85938 H 799.85938 V 0 H 90.109375 34.082031 Z M 155.28711,27.996094 H 771.86914 V 771.86328 H 28.130859 V 154.92773 a 89.968239,89.98407 0 0 0 61.978516,25.04102 89.968239,89.98407 0 0 0 44.195315,-11.85742 L 383.0293,416.87891 c 0.0116,-0.012 0.0197,-0.0271 0.0312,-0.0391 A 23.991531,23.995752 0 0 0 400,423.92578 a 23.991531,23.995752 0 0 0 23.99023,-23.99609 23.991531,23.995752 0 0 0 -7.04296,-16.98242 l 0.008,-0.008 C 334.0468,300.01683 251.13844,217.0944 168.23047,134.17188 A 89.968239,89.98407 0 0 0 180.07812,89.984375 89.968239,89.98407 0 0 0 155.28711,27.996094 Z" />
    <path
       id="path93"
       style="display:none;opacity:1;fill:#000000;stroke-width:7.00001"
       inkscape:label="Apostrophe"
       d="M 0.140625,0 V 799.85938 H 799.85938 V 89.984375 33.947266 0 h -33.91016 -56.0586 z M 28.130859,27.996094 H 644.95703 a 89.968239,89.98407 0 0 0 -25.03515,61.988281 89.968239,89.98407 0 0 0 11.85742,44.205075 c -82.91678,82.9295 -165.83365,165.85935 -248.75,248.78907 0.0116,0.0116 0.0197,0.0271 0.0312,0.0391 a 23.991531,23.995752 0 0 0 -7.05274,16.91211 23.991531,23.995752 0 0 0 23.99219,23.99609 23.991531,23.995752 0 0 0 16.9082,-7.05469 l 0.0469,0.0469 c 82.91838,-82.9329 165.83741,-165.8658 248.75586,-248.79883 a 89.968239,89.98407 0 0 0 44.17968,11.84961 89.968239,89.98407 0 0 0 61.97852,-25.04102 V 771.86328 H 28.130859 Z" />
    <path
       id="path91"
       style="display:none;opacity:1;fill:#000000;stroke-width:7.00001"
       inkscape:label="DoubleQuote"
       d="M 0.140625,0 V 799.85938 H 799.85938 V 89.984375 33.947266 0 H 765.94922 709.89062 423.99023 376.00781 Z M 28.130859,27.996094 H 335.06641 a 89.968239,89.98407 0 0 0 -25.03516,61.988281 89.968239,89.98407 0 0 0 65.97656,86.634765 v 223.31055 a 23.991531,23.995752 0 0 0 1.66797,8.38281 23.991531,23.995752 0 0 0 1.20313,2.36328 23.991531,23.995752 0 0 0 3.31445,4.96094 23.991531,23.995752 0 0 0 2.10156,2.10156 23.991531,23.995752 0 0 0 4.95703,3.3125 23.991531,23.995752 0 0 0 2.36719,1.20703 23.991531,23.995752 0 0 0 8.38086,1.66797 23.991531,23.995752 0 0 0 8.46094,-1.70898 23.991531,23.995752 0 0 0 2.01172,-1.02539 23.991531,23.995752 0 0 0 5.41406,-3.63477 23.991531,23.995752 0 0 0 1.02148,-0.68555 l 0.0469,0.0469 c 82.91838,-82.9329 165.83741,-165.8658 248.75586,-248.79883 a 89.968239,89.98407 0 0 0 44.17968,11.84961 89.968239,89.98407 0 0 0 61.97852,-25.04102 V 771.86328 H 28.130859 Z m 437.046871,0 h 179.7793 A 89.968239,89.98407 0 0 0 619.92188,89.984375 89.968239,89.98407 0 0 0 631.7793,134.19141 C 562.51641,203.46492 493.25291,272.7381 423.99023,342.01172 V 176.61914 A 89.968239,89.98407 0 0 0 489.96875,89.984375 89.968239,89.98407 0 0 0 465.17773,27.996094 Z" />
    <path
       id="path163"
       style="display:none;opacity:1;fill:#000000;stroke-width:7.00001"
       inkscape:label="Exclamation_Inverted"
       d="M 0.140625,0 V 799.85938 H 375.95312 423.93555 799.85938 V 0 H 423.99023 376.00781 Z M 28.130859,27.996094 H 335.06641 a 89.968239,89.98407 0 0 0 -25.03516,61.988281 89.968239,89.98407 0 0 0 65.97656,86.634765 v 223.31055 h -0.0547 V 771.86328 H 28.130859 Z m 437.046871,0 H 771.86914 V 771.86328 H 423.93555 V 400.70312 a 23.991531,23.995752 0 0 0 0.0547,-0.77343 V 176.61914 A 89.968239,89.98407 0 0 0 489.96875,89.984375 89.968239,89.98407 0 0 0 465.17773,27.996094 Z" />
    <path
       id="path89"
       style="display:none;opacity:1;fill:#000000;stroke-width:7.00001"
       inkscape:label="Exclamation"
       d="M 0.140625,0 V 799.85938 H 375.95312 423.93555 799.85938 V 0 H 423.99023 376.00781 Z M 28.130859,27.996094 H 376.00781 V 399.92969 h -0.0547 v 223.32226 a 89.968239,89.98407 0 0 0 -65.92187,86.62305 89.968239,89.98407 0 0 0 25.03711,61.98828 H 28.130859 Z m 395.859371,0 H 771.86914 V 771.86328 H 464.92969 A 89.968239,89.98407 0 0 0 489.96875,709.875 89.968239,89.98407 0 0 0 423.93555,623.16211 V 400.70312 a 23.991531,23.995752 0 0 0 0.0547,-0.77343 z" />
    <path
       id="path140"
       style="display:none;opacity:1;fill:#000000;stroke-width:7.00001"
       inkscape:label="Ampersand2"
       d="m 0.140625,0 v 12.947266 c -0.11629373,4.699401 -0.22896292,9.396882 0,13.953125 v 738.957029 34.00196 h 12.925781 c 4.699103,0.11694 9.396113,0.23056 13.951172,0 H 799.85938 V 423.95703 375.96484 0 H 34.082031 Z M 62.074219,27.996094 H 771.86914 V 375.96484 H 409.98242 C 294.01288,259.97521 178.04355,143.98581 62.074219,27.996094 Z M 28.130859,61.917969 366.03906,399.88672 C 253.4032,512.54422 140.7667,625.20377 28.130859,737.86133 Z M 409.83984,423.95703 h 362.0293 V 771.86328 H 61.996094 C 177.94422,655.89476 293.89159,539.92572 409.83984,423.95703 Z" />
    <path
       id="path102"
       style="display:none;opacity:1;fill:#000000;stroke-width:7.00001"
       inkscape:label="Ampersand"
       d="m 0.140625,0 v 12.947266 c -0.11629373,4.699401 -0.22896292,9.396882 0,13.953125 V 89.984375 709.875 v 55.98242 34.00196 h 12.925781 c 4.699103,0.11694 9.396113,0.23056 13.951172,0 H 90.109375 799.85938 V 423.95703 375.96484 0 H 90.109375 34.082031 Z M 155.28711,27.996094 H 771.86914 V 334.74023 a 89.968239,89.98407 0 0 0 -61.97852,-24.79492 89.968239,89.98407 0 0 0 -86.625,66.01953 H 409.98242 C 329.39851,295.36698 248.8141,214.76965 168.23047,134.17188 A 89.968239,89.98407 0 0 0 180.07812,89.984375 89.968239,89.98407 0 0 0 155.28711,27.996094 Z M 28.130859,154.92773 a 89.968239,89.98407 0 0 0 61.978516,25.04102 89.968239,89.98407 0 0 0 44.195315,-11.85742 L 366.03906,399.88672 C 288.82413,477.11648 211.6093,554.34804 134.39453,631.57812 A 89.968239,89.98407 0 0 0 90.109375,619.89062 89.968239,89.98407 0 0 0 28.130859,644.93164 Z M 409.83984,423.95703 H 623.2793 a 89.968239,89.98407 0 0 0 86.61132,65.95703 89.968239,89.98407 0 0 0 61.97852,-25.04297 V 771.86328 H 155.03906 A 89.968239,89.98407 0 0 0 180.07812,709.875 89.968239,89.98407 0 0 0 168.34375,665.49609 C 248.84218,584.9835 329.34098,504.47008 409.83984,423.95703 Z" />
  </g>
  <g
     inkscape:groupmode="layer"
     id="layer2"
     inkscape:label="Numbers"
     inkscape:highlight-color="#f3b621">
    <path
       id="path51"
       style="display:none;opacity:1;fill:#000000;stroke-width:7.00001"
       inkscape:label="9"
       d="M 0.140625,0 V 89.984375 399.92969 709.875 799.85938 H 90.109375 400 709.89062 799.85938 V 709.875 399.92969 89.984375 0 H 709.89062 400 90.109375 Z M 155.28711,27.996094 h 179.7793 A 89.968239,89.98407 0 0 0 310.03125,89.984375 89.968239,89.98407 0 0 0 400,179.96875 89.968239,89.98407 0 0 0 489.96875,89.984375 89.968239,89.98407 0 0 0 465.17773,27.996094 h 179.7793 a 89.968239,89.98407 0 0 0 -25.03515,61.988281 89.968239,89.98407 0 0 0 89.96874,89.984375 89.968239,89.98407 0 0 0 61.97852,-25.04102 v 179.8125 a 89.968239,89.98407 0 0 0 -61.97852,-24.79492 89.968239,89.98407 0 0 0 -89.96874,89.98438 89.968239,89.98407 0 0 0 89.96874,89.98437 89.968239,89.98407 0 0 0 61.97852,-25.04297 v 179.81446 a 89.968239,89.98407 0 0 0 -61.97852,-24.79493 89.968239,89.98407 0 0 0 -89.96874,89.98438 89.968239,89.98407 0 0 0 25.0371,61.98828 H 464.92969 A 89.968239,89.98407 0 0 0 489.96875,709.875 89.968239,89.98407 0 0 0 400,619.89062 89.968239,89.98407 0 0 0 310.03125,709.875 89.968239,89.98407 0 0 0 335.06836,771.86328 H 155.03906 A 89.968239,89.98407 0 0 0 180.07812,709.875 89.968239,89.98407 0 0 0 90.109375,619.89062 89.968239,89.98407 0 0 0 28.130859,644.93164 V 464.87305 A 89.968239,89.98407 0 0 0 90.109375,489.91406 89.968239,89.98407 0 0 0 180.07812,399.92969 89.968239,89.98407 0 0 0 90.109375,309.94531 89.968239,89.98407 0 0 0 28.130859,334.98633 V 154.92773 A 89.968239,89.98407 0 0 0 90.109375,179.96875 89.968239,89.98407 0 0 0 180.07812,89.984375 89.968239,89.98407 0 0 0 155.28711,27.996094 Z M 400,309.94531 A 89.968239,89.98407 0 0 0 310.03125,399.92969 89.968239,89.98407 0 0 0 400,489.91406 89.968239,89.98407 0 0 0 489.96875,399.92969 89.968239,89.98407 0 0 0 400,309.94531 Z" />
    <path
       id="path59"
       style="display:none;opacity:1;fill:#000000;stroke-width:7.00001"
       inkscape:label="8"
       d="M 0.140625,0 V 89.984375 399.92969 709.875 799.85938 H 90.109375 400 709.89062 799.85938 V 709.875 399.92969 89.984375 0 H 709.89062 400 90.109375 Z M 155.28711,27.996094 h 179.7793 A 89.968239,89.98407 0 0 0 310.03125,89.984375 89.968239,89.98407 0 0 0 400,179.96875 89.968239,89.98407 0 0 0 489.96875,89.984375 89.968239,89.98407 0 0 0 465.17773,27.996094 h 179.7793 a 89.968239,89.98407 0 0 0 -25.03515,61.988281 89.968239,89.98407 0 0 0 89.96874,89.984375 89.968239,89.98407 0 0 0 61.97852,-25.04102 v 179.8125 a 89.968239,89.98407 0 0 0 -61.97852,-24.79492 89.968239,89.98407 0 0 0 -89.96874,89.98438 89.968239,89.98407 0 0 0 89.96874,89.98437 89.968239,89.98407 0 0 0 61.97852,-25.04297 v 179.81446 a 89.968239,89.98407 0 0 0 -61.97852,-24.79493 89.968239,89.98407 0 0 0 -89.96874,89.98438 89.968239,89.98407 0 0 0 25.0371,61.98828 H 464.92969 A 89.968239,89.98407 0 0 0 489.96875,709.875 89.968239,89.98407 0 0 0 400,619.89062 89.968239,89.98407 0 0 0 310.03125,709.875 89.968239,89.98407 0 0 0 335.06836,771.86328 H 155.03906 A 89.968239,89.98407 0 0 0 180.07812,709.875 89.968239,89.98407 0 0 0 90.109375,619.89062 89.968239,89.98407 0 0 0 28.130859,644.93164 V 464.87305 A 89.968239,89.98407 0 0 0 90.109375,489.91406 89.968239,89.98407 0 0 0 180.07812,399.92969 89.968239,89.98407 0 0 0 90.109375,309.94531 89.968239,89.98407 0 0 0 28.130859,334.98633 V 154.92773 A 89.968239,89.98407 0 0 0 90.109375,179.96875 89.968239,89.98407 0 0 0 180.07812,89.984375 89.968239,89.98407 0 0 0 155.28711,27.996094 Z" />
    <path
       id="path66"
       style="display:none;opacity:1;fill:#000000;stroke-width:7.00001"
       inkscape:label="7"
       d="M 0.140625,0 V 89.984375 399.92969 709.875 799.85938 h 89.96875 619.781245 89.96876 V 709.875 399.92969 89.984375 0 H 709.89062 90.109375 Z M 155.28711,27.996094 h 489.66992 a 89.968239,89.98407 0 0 0 -25.03515,61.988281 89.968239,89.98407 0 0 0 89.96874,89.984375 89.968239,89.98407 0 0 0 61.97852,-25.04102 v 179.8125 a 89.968239,89.98407 0 0 0 -61.97852,-24.79492 89.968239,89.98407 0 0 0 -89.96874,89.98438 89.968239,89.98407 0 0 0 89.96874,89.98437 89.968239,89.98407 0 0 0 61.97852,-25.04297 v 179.81446 a 89.968239,89.98407 0 0 0 -61.97852,-24.79493 89.968239,89.98407 0 0 0 -89.96874,89.98438 89.968239,89.98407 0 0 0 25.0371,61.98828 H 155.03906 A 89.968239,89.98407 0 0 0 180.07812,709.875 89.968239,89.98407 0 0 0 90.109375,619.89062 89.968239,89.98407 0 0 0 28.130859,644.93164 V 464.87305 A 89.968239,89.98407 0 0 0 90.109375,489.91406 89.968239,89.98407 0 0 0 180.07812,399.92969 89.968239,89.98407 0 0 0 90.109375,309.94531 89.968239,89.98407 0 0 0 28.130859,334.98633 V 154.92773 A 89.968239,89.98407 0 0 0 90.109375,179.96875 89.968239,89.98407 0 0 0 180.07812,89.984375 89.968239,89.98407 0 0 0 155.28711,27.996094 Z M 400,309.94531 A 89.968239,89.98407 0 0 0 310.03125,399.92969 89.968239,89.98407 0 0 0 400,489.91406 89.968239,89.98407 0 0 0 489.96875,399.92969 89.968239,89.98407 0 0 0 400,309.94531 Z" />
    <path
       id="path72"
       style="display:none;opacity:1;fill:#000000;stroke-width:7.00001"
       inkscape:label="6"
       d="M 0.140625,0 V 89.984375 399.92969 709.875 799.85938 h 89.96875 619.781245 89.96876 V 709.875 399.92969 89.984375 0 H 709.89062 90.109375 Z M 155.28711,27.996094 h 489.66992 a 89.968239,89.98407 0 0 0 -25.03515,61.988281 89.968239,89.98407 0 0 0 89.96874,89.984375 89.968239,89.98407 0 0 0 61.97852,-25.04102 v 179.8125 a 89.968239,89.98407 0 0 0 -61.97852,-24.79492 89.968239,89.98407 0 0 0 -89.96874,89.98438 89.968239,89.98407 0 0 0 89.96874,89.98437 89.968239,89.98407 0 0 0 61.97852,-25.04297 v 179.81446 a 89.968239,89.98407 0 0 0 -61.97852,-24.79493 89.968239,89.98407 0 0 0 -89.96874,89.98438 89.968239,89.98407 0 0 0 25.0371,61.98828 H 155.03906 A 89.968239,89.98407 0 0 0 180.07812,709.875 89.968239,89.98407 0 0 0 90.109375,619.89062 89.968239,89.98407 0 0 0 28.130859,644.93164 V 464.87305 A 89.968239,89.98407 0 0 0 90.109375,489.91406 89.968239,89.98407 0 0 0 180.07812,399.92969 89.968239,89.98407 0 0 0 90.109375,309.94531 89.968239,89.98407 0 0 0 28.130859,334.98633 V 154.92773 A 89.968239,89.98407 0 0 0 90.109375,179.96875 89.968239,89.98407 0 0 0 180.07812,89.984375 89.968239,89.98407 0 0 0 155.28711,27.996094 Z" />
    <path
       id="path77"
       style="display:none;opacity:1;fill:#000000;stroke-width:7.00001"
       inkscape:label="5"
       d="M 0.140625,0 V 399.92969 799.85938 H 400 799.85938 V 399.92969 0 H 400 Z M 28.130859,27.996094 H 335.06641 A 89.968239,89.98407 0 0 0 310.03125,89.984375 89.968239,89.98407 0 0 0 400,179.96875 89.968239,89.98407 0 0 0 489.96875,89.984375 89.968239,89.98407 0 0 0 465.17773,27.996094 H 771.86914 V 334.74023 a 89.968239,89.98407 0 0 0 -61.97852,-24.79492 89.968239,89.98407 0 0 0 -89.96874,89.98438 89.968239,89.98407 0 0 0 89.96874,89.98437 89.968239,89.98407 0 0 0 61.97852,-25.04297 V 771.86328 H 464.92969 A 89.968239,89.98407 0 0 0 489.96875,709.875 89.968239,89.98407 0 0 0 400,619.89062 89.968239,89.98407 0 0 0 310.03125,709.875 89.968239,89.98407 0 0 0 335.06836,771.86328 H 28.130859 V 464.87305 A 89.968239,89.98407 0 0 0 90.109375,489.91406 89.968239,89.98407 0 0 0 180.07812,399.92969 89.968239,89.98407 0 0 0 90.109375,309.94531 89.968239,89.98407 0 0 0 28.130859,334.98633 Z M 400,309.94531 A 89.968239,89.98407 0 0 0 310.03125,399.92969 89.968239,89.98407 0 0 0 400,489.91406 89.968239,89.98407 0 0 0 489.96875,399.92969 89.968239,89.98407 0 0 0 400,309.94531 Z" />
    <path
       id="path81"
       style="display:none;opacity:1;fill:#000000;stroke-width:7.00001"
       inkscape:label="4"
       d="M 0.140625,0 V 399.92969 799.85938 H 400 799.85938 V 399.92969 0 H 400 Z M 28.130859,27.996094 H 335.06641 A 89.968239,89.98407 0 0 0 310.03125,89.984375 89.968239,89.98407 0 0 0 400,179.96875 89.968239,89.98407 0 0 0 489.96875,89.984375 89.968239,89.98407 0 0 0 465.17773,27.996094 H 771.86914 V 334.74023 a 89.968239,89.98407 0 0 0 -61.97852,-24.79492 89.968239,89.98407 0 0 0 -89.96874,89.98438 89.968239,89.98407 0 0 0 89.96874,89.98437 89.968239,89.98407 0 0 0 61.97852,-25.04297 V 771.86328 H 464.92969 A 89.968239,89.98407 0 0 0 489.96875,709.875 89.968239,89.98407 0 0 0 400,619.89062 89.968239,89.98407 0 0 0 310.03125,709.875 89.968239,89.98407 0 0 0 335.06836,771.86328 H 28.130859 V 464.87305 a 89.968239,89.98407 0 0 0 61.978516,25.04101 89.968239,89.98407 0 0 0 89.968745,-89.98437 89.968239,89.98407 0 0 0 -89.968745,-89.98438 89.968239,89.98407 0 0 0 -61.978516,25.04102 z" />
    <path
       id="path84"
       style="display:none;opacity:1;fill:#000000;stroke-width:7.00001"
       inkscape:label="3"
       d="M 0.140625,0 V 799.85938 H 400 799.85938 V 0 H 400 Z M 28.130859,27.996094 H 335.06641 A 89.968239,89.98407 0 0 0 310.03125,89.984375 89.968239,89.98407 0 0 0 400,179.96875 89.968239,89.98407 0 0 0 489.96875,89.984375 89.968239,89.98407 0 0 0 465.17773,27.996094 H 771.86914 V 771.86328 H 464.92969 A 89.968239,89.98407 0 0 0 489.96875,709.875 89.968239,89.98407 0 0 0 400,619.89062 89.968239,89.98407 0 0 0 310.03125,709.875 89.968239,89.98407 0 0 0 335.06836,771.86328 H 28.130859 Z M 400,309.94531 A 89.968239,89.98407 0 0 0 310.03125,399.92969 89.968239,89.98407 0 0 0 400,489.91406 89.968239,89.98407 0 0 0 489.96875,399.92969 89.968239,89.98407 0 0 0 400,309.94531 Z" />
    <path
       id="path86"
       style="display:none;opacity:1;fill:#000000;stroke-width:7.00001"
       inkscape:label="2"
       d="M 0.140625,0 V 799.85938 H 400 799.85938 V 0 H 400 Z M 28.130859,27.996094 H 335.06641 A 89.968239,89.98407 0 0 0 310.03125,89.984375 89.968239,89.98407 0 0 0 400,179.96875 89.968239,89.98407 0 0 0 489.96875,89.984375 89.968239,89.98407 0 0 0 465.17773,27.996094 H 771.86914 V 771.86328 H 464.92969 A 89.968239,89.98407 0 0 0 489.96875,709.875 89.968239,89.98407 0 0 0 400,619.89062 89.968239,89.98407 0 0 0 310.03125,709.875 89.968239,89.98407 0 0 0 335.06836,771.86328 H 28.130859 Z" />
    <path
       id="path87"
       style="display:none;opacity:1;fill:#000000;stroke-width:7.00001"
       inkscape:label="1"
       d="M 0.140625,0 V 799.85938 H 799.85938 V 0 H 400 Z M 28.130859,27.996094 H 335.06641 A 89.968239,89.98407 0 0 0 310.03125,89.984375 89.968239,89.98407 0 0 0 400,179.96875 89.968239,89.98407 0 0 0 489.96875,89.984375 89.968239,89.98407 0 0 0 465.17773,27.996094 H 771.86914 V 771.86328 H 28.130859 Z" />
    <path
       id="path88"
       style="display:none;opacity:1;fill:#000000;stroke-width:7.00001"
       inkscape:label="0"
       d="m 0.14081082,9.7962156e-5 c 0,266.619462037844 0,533.238902037844 0,799.858382037844 266.57256918,0 533.14512918,0 799.71770918,0 0,-266.61948 0,-533.23892 0,-799.858382037844 -266.57258,0 -533.14514,0 -799.71770918,0 z M 28.13093,27.995141 c 247.91249,0 495.82498,0 743.73748,0 0,247.956099 0,495.912199 0,743.868299 -247.9125,0 -495.82499,0 -743.73748,0 0,-247.9561 0,-495.9122 0,-743.868299 z" />
  </g>
  <g
     inkscape:groupmode="layer"
     id="layer1"
     inkscape:label="Letters"
     inkscape:highlight-color="#2174f3"
     style="display:inline">
    <path
       id="path3"
       style="display:none;opacity:1;fill:#000000;stroke-width:7.00001"
       inkscape:label="Z"
       d="m 0.140625,0 v 709.875 89.98438 h 89.96875 619.781245 89.96876 V 709.875 0 Z M 28.130859,27.996094 H 771.86914 V 644.68555 a 89.968239,89.98407 0 0 0 -61.97852,-24.79493 89.968239,89.98407 0 0 0 -89.96874,89.98438 89.968239,89.98407 0 0 0 25.0371,61.98828 H 155.03906 A 89.968239,89.98407 0 0 0 180.07812,709.875 89.968239,89.98407 0 0 0 90.109375,619.89062 89.968239,89.98407 0 0 0 28.130859,644.93164 Z" />
    <path
       id="path4"
       style="display:none;opacity:1;fill:#000000;stroke-width:7.00001"
       inkscape:label="Y"
       d="M 0.140625,0 V 89.984375 799.85938 H 709.89062 799.85938 V 709.875 0 H 90.109375 Z M 155.28711,27.996094 H 771.86914 V 644.68555 a 89.968239,89.98407 0 0 0 -61.97852,-24.79493 89.968239,89.98407 0 0 0 -89.96874,89.98438 89.968239,89.98407 0 0 0 25.0371,61.98828 H 28.130859 V 154.92773 A 89.968239,89.98407 0 0 0 90.109375,179.96875 89.968239,89.98407 0 0 0 180.07812,89.984375 89.968239,89.98407 0 0 0 155.28711,27.996094 Z" />
    <path
       id="path5"
       style="display:none;opacity:1;fill:#000000;stroke-width:7.00001"
       inkscape:label="W"
       d="M 0.140625,0 V 799.85938 H 709.89062 799.85938 V 709.875 0 Z M 28.130859,27.996094 H 771.86914 V 644.68555 a 89.968239,89.98407 0 0 0 -61.97852,-24.79493 89.968239,89.98407 0 0 0 -89.96874,89.98438 89.968239,89.98407 0 0 0 25.0371,61.98828 H 28.130859 Z" />
    <path
       id="path6"
       style="display:none;opacity:1;fill:#000000;stroke-width:7.00001"
       inkscape:label="V"
       d="M 0.140625,0 V 89.984375 799.85938 H 799.85938 V 0 H 90.109375 Z M 155.28711,27.996094 H 771.86914 V 771.86328 H 28.130859 V 154.92773 A 89.968239,89.98407 0 0 0 90.109375,179.96875 89.968239,89.98407 0 0 0 180.07812,89.984375 89.968239,89.98407 0 0 0 155.28711,27.996094 Z" />
    <path
       id="path7"
       style="display:none;opacity:1;fill:#000000;stroke-width:7.00001"
       inkscape:label="U"
       d="m 0.140625,0 v 709.875 89.98438 H 90.109375 799.85938 V 0 Z M 28.130859,27.996094 H 771.86914 V 771.86328 H 155.03906 A 89.968239,89.98407 0 0 0 180.07812,709.875 89.968239,89.98407 0 0 0 90.109375,619.89062 89.968239,89.98407 0 0 0 28.130859,644.93164 Z" />
    <path
       id="path8"
       style="display:none;opacity:1;fill:#000000;stroke-width:7.00001"
       inkscape:label="T"
       d="m 0.140625,0 v 12.947266 c -0.11629373,4.699401 -0.22896292,9.396882 0,13.953125 V 799.85938 h 765.714845 34.00391 v -12.92774 c 0.11696,-4.70025 0.23055,-9.39893 0,-13.95508 V 0 H 34.082031 Z M 62.074219,27.996094 H 771.86914 V 737.99609 C 653.90524,620.01386 535.9426,502.03122 417.97852,384.04883 a 23.991531,23.995752 0 0 0 -0.58008,-0.42969 23.991531,23.995752 0 0 0 -0.45117,-0.67187 l 0.008,-0.008 C 298.66116,264.62506 180.36789,146.31056 62.074219,27.996094 Z M 28.130859,61.917969 383.0293,416.87891 c 0.0116,-0.012 0.0197,-0.0271 0.0312,-0.0391 a 23.991531,23.995752 0 0 0 0.004,0.004 23.991531,23.995752 0 0 0 0.004,0.004 c -0.0248,0.024 -0.0534,0.0455 -0.0781,0.0703 118.29126,118.31439 236.58373,236.63077 354.875,354.94531 H 28.130859 Z" />
    <path
       id="path10"
       style="display:none;opacity:1;fill:#000000;stroke-width:7.00001"
       inkscape:label="S"
       d="m 0.140625,0 v 709.875 89.98438 H 90.109375 799.85938 V 89.984375 0 H 709.89062 Z M 28.130859,27.996094 H 644.95703 a 89.968239,89.98407 0 0 0 -25.03515,61.988281 89.968239,89.98407 0 0 0 89.96874,89.984375 89.968239,89.98407 0 0 0 61.97852,-25.04102 V 771.86328 H 155.03906 A 89.968239,89.98407 0 0 0 180.07812,709.875 89.968239,89.98407 0 0 0 90.109375,619.89062 89.968239,89.98407 0 0 0 28.130859,644.93164 Z" />
    <path
       id="path11"
       style="display:none;opacity:1;fill:#000000;stroke-width:7.00001"
       inkscape:label="R"
       d="m 0.140625,0 v 375.91016 47.99218 341.95508 34.00196 h 12.925781 c 4.699103,0.11694 9.396113,0.23056 13.951172,0 H 799.85938 V 423.95703 375.96484 33.947266 0 H 765.94922 Z M 28.130859,27.996094 H 737.95703 C 622.00384,143.96771 506.04877,259.93847 390.0957,375.91016 H 28.130859 Z M 771.86914,61.941406 V 375.96484 H 457.90039 C 562.55646,271.29044 667.21313,166.61583 771.86914,61.941406 Z M 28.130859,423.90234 H 342.02734 C 237.3953,528.55468 132.76295,633.20907 28.130859,737.86133 Z m 381.708981,0.0547 h 362.0293 V 771.86328 H 61.996094 C 177.94422,655.89476 293.89159,539.92572 409.83984,423.95703 Z" />
    <path
       id="path15"
       style="display:none;opacity:1;fill:#000000;stroke-width:7.00001"
       inkscape:label="P"
       d="m 0.140625,0 v 765.85742 34.00196 h 12.925781 c 4.699103,0.11694 9.396113,0.23056 13.951172,0 H 375.95312 423.93555 799.85938 V 33.947266 0 H 765.94922 423.99023 376.00781 Z M 28.130859,27.996094 H 376.00781 V 389.91602 C 260.049,505.897 144.08961,621.88022 28.130859,737.86133 Z m 395.859371,0 h 313.9668 C 633.30175,132.668 528.64558,237.33984 423.99023,342.01172 Z M 771.86914,61.941406 V 771.86328 H 423.93555 V 409.93555 C 539.91316,293.93763 655.89155,177.9394 771.86914,61.941406 Z M 375.95312,457.84961 V 771.86328 H 61.996094 C 166.64866,667.1923 271.30065,562.52052 375.95312,457.84961 Z" />
    <path
       id="path19"
       style="display:none;opacity:1;fill:#000000;stroke-width:7.00001"
       inkscape:label="O"
       d="m 0.140625,0 v 12.947266 c -0.11629373,4.699401 -0.22896292,9.396882 0,13.953125 v 738.957029 34.00196 h 12.925781 c 4.699103,0.11694 9.396113,0.23056 13.951172,0 h 738.837892 34.00391 v -12.92774 c 0.11696,-4.70025 0.23055,-9.39893 0,-13.95508 V 33.947266 0 H 765.94922 34.082031 Z M 62.072266,27.996094 H 737.95703 C 625.30891,140.66211 512.65978,253.32809 400.01172,365.99414 287.36517,253.32806 174.71865,140.66228 62.072266,27.996094 Z M 28.130859,61.917969 366.03906,399.88672 C 253.4032,512.54422 140.7667,625.20377 28.130859,737.86133 Z m 743.738281,0.02344 V 737.99609 C 659.2118,625.32124 546.55584,512.64559 433.89844,399.9707 546.55507,287.29434 659.21255,174.61782 771.86914,61.941406 Z M 399.93359,433.86523 C 512.57702,546.5307 625.22182,659.19771 737.86523,771.86328 H 61.996094 C 174.6421,659.19746 287.28753,546.53114 399.93359,433.86523 Z" />
    <path
       id="path31"
       style="display:none;opacity:1;fill:#000000;stroke-width:7.00001"
       inkscape:label="N"
       d="M 0.140625,0 V 799.85938 H 709.89062 799.85938 V 709.875 89.984375 0 H 709.89062 Z M 28.130859,27.996094 H 644.95703 a 89.968239,89.98407 0 0 0 -25.03515,61.988281 89.968239,89.98407 0 0 0 89.96874,89.984375 89.968239,89.98407 0 0 0 61.97852,-25.04102 v 489.75782 a 89.968239,89.98407 0 0 0 -61.97852,-24.79493 89.968239,89.98407 0 0 0 -89.96874,89.98438 89.968239,89.98407 0 0 0 25.0371,61.98828 H 28.130859 Z" />
    <path
       id="path32"
       style="display:none;opacity:1;fill:#000000;stroke-width:7.00001"
       inkscape:label="M"
       d="M 0.140625,0 V 89.984375 709.875 799.85938 H 90.109375 799.85938 V 0 H 90.109375 Z M 155.28711,27.996094 H 771.86914 V 771.86328 H 155.03906 A 89.968239,89.98407 0 0 0 180.07812,709.875 89.968239,89.98407 0 0 0 90.109375,619.89062 89.968239,89.98407 0 0 0 28.130859,644.93164 V 154.92773 A 89.968239,89.98407 0 0 0 90.109375,179.96875 89.968239,89.98407 0 0 0 180.07812,89.984375 89.968239,89.98407 0 0 0 155.28711,27.996094 Z" />
    <path
       id="path33"
       style="display:none;opacity:1;fill:#000000;stroke-width:7.00001"
       inkscape:label="L"
       d="m 0.140625,0 v 375.91016 47.99218 375.95704 H 799.85938 V 423.95703 375.96484 0 Z M 28.130859,27.996094 H 771.86914 V 375.96484 H 401.17969 A 23.991531,23.995752 0 0 0 400,375.93359 a 23.991531,23.995752 0 0 0 -0.0312,0 v -0.0234 H 28.130859 Z m 0,395.906246 H 399.67188 a 23.991531,23.995752 0 0 0 0.27148,0.0195 23.991531,23.995752 0 0 0 0.0254,0.004 v 0.0312 H 771.86914 V 771.86328 H 28.130859 Z" />
    <path
       id="path35"
       style="display:none;opacity:1;fill:#000000;stroke-width:7.00001"
       inkscape:label="I"
       d="m 0.140625,0 v 375.91016 47.99218 375.95704 H 375.95312 423.93555 799.85938 V 423.95703 375.96484 0 H 423.99023 376.00781 Z M 28.130859,27.996094 H 376.00781 V 375.91016 H 28.130859 Z m 395.859371,0 H 771.86914 V 375.96484 H 423.99023 Z M 28.130859,423.90234 H 375.95312 V 771.86328 H 28.130859 Z m 395.804691,0.0547 H 771.86914 V 771.86328 H 423.93555 Z" />
    <path
       id="path39"
       style="display:none;opacity:1;fill:#000000;stroke-width:7.00001"
       inkscape:label="H"
       d="M 0.140625,0 V 89.984375 799.85938 H 709.89062 799.85938 V 709.875 0 H 90.109375 Z M 155.28711,27.996094 H 771.86914 V 644.68555 a 89.968239,89.98407 0 0 0 -61.97852,-24.79493 89.968239,89.98407 0 0 0 -89.96874,89.98438 89.968239,89.98407 0 0 0 25.0371,61.98828 H 28.130859 V 154.92773 A 89.968239,89.98407 0 0 0 90.109375,179.96875 89.968239,89.98407 0 0 0 180.07812,89.984375 89.968239,89.98407 0 0 0 155.28711,27.996094 Z M 400,309.94531 A 89.968239,89.98407 0 0 0 310.03125,399.92969 89.968239,89.98407 0 0 0 400,489.91406 89.968239,89.98407 0 0 0 489.96875,399.92969 89.968239,89.98407 0 0 0 400,309.94531 Z" />
    <path
       id="path41"
       style="display:none;opacity:1;fill:#000000;stroke-width:7.00001"
       inkscape:label="G"
       d="M 0.140625,0 V 799.85938 H 375.95312 423.93555 799.85938 V 0 H 423.99023 376.00781 Z M 28.130859,27.996094 H 376.00781 V 399.92969 h -0.0547 V 771.86328 H 28.130859 Z m 395.859371,0 H 771.86914 V 771.86328 H 423.93555 V 400.70312 a 23.991531,23.995752 0 0 0 0.0547,-0.77343 z" />
    <path
       id="path43"
       style="display:none;opacity:1;fill:#000000;stroke-width:7.00001"
       inkscape:label="F"
       d="m 0.140625,0 v 709.875 89.98438 h 89.96875 619.781245 89.96876 V 709.875 0 Z M 28.130859,27.996094 H 771.86914 V 644.68555 a 89.968239,89.98407 0 0 0 -61.97852,-24.79493 89.968239,89.98407 0 0 0 -89.96874,89.98438 89.968239,89.98407 0 0 0 25.0371,61.98828 H 155.03906 A 89.968239,89.98407 0 0 0 180.07812,709.875 89.968239,89.98407 0 0 0 90.109375,619.89062 89.968239,89.98407 0 0 0 28.130859,644.93164 Z M 400,309.94531 A 89.968239,89.98407 0 0 0 310.03125,399.92969 89.968239,89.98407 0 0 0 400,489.91406 89.968239,89.98407 0 0 0 489.96875,399.92969 89.968239,89.98407 0 0 0 400,309.94531 Z" />
    <path
       id="path45"
       style="display:none;opacity:1;fill:#000000;stroke-width:7.00001"
       inkscape:label="E"
       d="M 0.140625,0 V 89.984375 799.85938 H 799.85938 V 89.984375 0 H 709.89062 90.109375 Z M 155.28711,27.996094 h 489.66992 a 89.968239,89.98407 0 0 0 -25.03515,61.988281 89.968239,89.98407 0 0 0 89.96874,89.984375 89.968239,89.98407 0 0 0 61.97852,-25.04102 V 771.86328 H 28.130859 V 154.92773 A 89.968239,89.98407 0 0 0 90.109375,179.96875 89.968239,89.98407 0 0 0 180.07812,89.984375 89.968239,89.98407 0 0 0 155.28711,27.996094 Z M 400,309.94531 A 89.968239,89.98407 0 0 0 310.03125,399.92969 89.968239,89.98407 0 0 0 400,489.91406 89.968239,89.98407 0 0 0 489.96875,399.92969 89.968239,89.98407 0 0 0 400,309.94531 Z" />
    <path
       id="path47"
       style="display:none;opacity:1;fill:#000000;stroke-width:7.00001"
       inkscape:label="D"
       d="m 0.140625,0 v 12.947266 c -0.11629373,4.699401 -0.22896292,9.396882 0,13.953125 v 349.009769 47.99218 375.95704 h 765.714845 34.00391 v -12.92774 c 0.11696,-4.70025 0.23055,-9.39893 0,-13.95508 V 423.95703 375.96484 0 H 34.082031 Z M 62.074219,27.996094 H 771.86914 V 375.96484 H 409.98242 C 294.01288,259.97521 178.04355,143.98581 62.074219,27.996094 Z M 28.130859,61.917969 342.06836,375.91016 H 28.130859 Z m 0,361.984371 H 389.97266 c 115.9637,115.98639 231.92886,231.97441 347.89257,347.96094 H 28.130859 Z m 429.750001,0.0547 H 771.86914 V 737.99609 C 667.20598,633.31666 562.54393,528.63636 457.88086,423.95703 Z" />
    <path
       id="path2"
       style="display:none;opacity:1;fill:#000000;stroke-width:7.00001"
       inkscape:label="A"
       d="M 0.140625,0 V 799.85938 H 799.85938 V 0 Z M 28.130859,27.996094 H 771.86914 V 771.86328 H 28.130859 Z M 400,309.94531 A 89.968239,89.98407 0 0 0 310.03125,399.92969 89.968239,89.98407 0 0 0 400,489.91406 89.968239,89.98407 0 0 0 489.96875,399.92969 89.968239,89.98407 0 0 0 400,309.94531 Z" />
  </g>
  <g
     inkscape:groupmode="layer"
     id="layer4"
     inkscape:label="GUESS_LETTERS"
     style="display:inline">
    <path
       id="path183"
       style="display:none;opacity:1;fill:#000000;stroke-width:7.00001"
       inkscape:label="X"
       d="M 0.140625,0 V 89.984375 799.85938 H 799.85938 V 89.984375 0 H 709.89062 90.109375 Z M 155.28711,27.996094 h 489.66992 a 89.968239,89.98407 0 0 0 -25.03515,61.988281 89.968239,89.98407 0 0 0 89.96874,89.984375 89.968239,89.98407 0 0 0 61.97852,-25.04102 V 771.86328 H 28.130859 V 154.92773 A 89.968239,89.98407 0 0 0 90.109375,179.96875 89.968239,89.98407 0 0 0 180.07812,89.984375 89.968239,89.98407 0 0 0 155.28711,27.996094 Z" />
    <path
       id="path184"
       style="display:none;opacity:1;fill:#000000;stroke-width:7.00001"
       inkscape:label="Q"
       d="M 0.140625,0 V 89.984375 709.875 799.85938 H 90.109375 799.85938 V 0 H 90.109375 Z M 155.28711,27.996094 H 771.86914 V 771.86328 H 155.03906 A 89.968239,89.98407 0 0 0 180.07812,709.875 89.968239,89.98407 0 0 0 90.109375,619.89062 89.968239,89.98407 0 0 0 28.130859,644.93164 V 154.92773 A 89.968239,89.98407 0 0 0 90.109375,179.96875 89.968239,89.98407 0 0 0 180.07812,89.984375 89.968239,89.98407 0 0 0 155.28711,27.996094 Z M 400,309.94531 A 89.968239,89.98407 0 0 0 310.03125,399.92969 89.968239,89.98407 0 0 0 400,489.91406 89.968239,89.98407 0 0 0 489.96875,399.92969 89.968239,89.98407 0 0 0 400,309.94531 Z" />
    <path
       id="path175"
       style="display:none;opacity:1;fill:#000000;stroke-width:7.00001"
       inkscape:label="K"
       d="m 0.140625,0 v 12.947266 c -0.11629373,4.699401 -0.22896292,9.396882 0,13.953125 V 799.85938 h 375.812495 47.98243 341.91992 34.00391 v -12.92774 c 0.11696,-4.70025 0.23055,-9.39893 0,-13.95508 V 0 H 423.99023 376.00781 34.082031 Z M 62.074219,27.996094 H 376.00781 V 341.98438 C 271.36325,237.32164 166.7187,132.65897 62.074219,27.996094 Z m 361.916011,0 H 771.86914 V 737.99609 C 655.909,622.01792 539.95052,506.03882 423.99023,390.06055 Z M 28.130859,61.917969 375.95312,409.80078 v 362.0625 H 28.130859 Z M 423.93555,457.87109 C 528.57853,562.53455 633.2223,667.19976 737.86523,771.86328 H 423.93555 Z" />
    <path
       id="path179"
       style="display:none;opacity:1;fill:#000000;stroke-width:7.00001"
       inkscape:label="J"
       d="m 0.140625,0 v 709.875 89.98438 H 90.109375 799.85938 V 89.984375 0 H 709.89062 Z M 28.130859,27.996094 H 644.95703 a 89.968239,89.98407 0 0 0 -25.03515,61.988281 89.968239,89.98407 0 0 0 89.96874,89.984375 89.968239,89.98407 0 0 0 61.97852,-25.04102 V 771.86328 H 155.03906 A 89.968239,89.98407 0 0 0 180.07812,709.875 89.968239,89.98407 0 0 0 90.109375,619.89062 89.968239,89.98407 0 0 0 28.130859,644.93164 Z M 400,309.94531 A 89.968239,89.98407 0 0 0 310.03125,399.92969 89.968239,89.98407 0 0 0 400,489.91406 89.968239,89.98407 0 0 0 489.96875,399.92969 89.968239,89.98407 0 0 0 400,309.94531 Z" />
    <path
       id="path173"
       style="display:none;opacity:1;fill:#000000;stroke-width:7.00001"
       inkscape:label="C"
       d="m 0.140625,0 v 799.85938 h 12.925781 c 4.699103,0.11694 9.396113,0.23056 13.951172,0 H 799.85938 V 33.947266 0 H 765.94922 Z M 28.130859,27.996094 H 737.95703 C 619.64824,146.32368 501.33792,264.65083 383.0293,382.97852 c 0.0116,0.0116 0.0197,0.0271 0.0312,0.0391 l -0.0781,-0.0781 C 264.69863,501.2458 146.41457,619.55481 28.130859,737.86133 Z M 771.86914,61.941406 V 771.86328 H 61.996094 C 180.30306,653.5355 298.60886,535.20691 416.91602,416.87891 l 0.0391,0.0391 C 535.25962,298.59272 653.56461,180.26675 771.86914,61.941406 Z" />
    <path
       id="path181"
       style="display:none;opacity:1;fill:#000000;stroke-width:7.00001"
       inkscape:label="B"
       d="M 0.140625,0 V 799.85938 H 799.85938 V 89.984375 0 H 709.89062 Z M 28.130859,27.996094 H 644.95703 a 89.968239,89.98407 0 0 0 -25.03515,61.988281 89.968239,89.98407 0 0 0 89.96874,89.984375 89.968239,89.98407 0 0 0 61.97852,-25.04102 V 771.86328 H 28.130859 Z" />
  </g>
</svg>
